<?xml version="1.0" standalone="no"?>
<!DOCTYPE svg PUBLIC "-//W3C//DTD SVG 20010904//EN"
 "http://www.w3.org/TR/2001/REC-SVG-20010904/DTD/svg10.dtd">
<svg version="1.0" xmlns="http://www.w3.org/2000/svg"
 width="225.000000pt" height="225.000000pt" viewBox="0 0 225.000000 225.000000"
 preserveAspectRatio="xMidYMid meet">
<metadata>
Created by potrace 1.14, written by Peter Selinger 2001-2017
</metadata>
<g transform="translate(0.000000,225.000000) scale(0.100000,-0.100000)"
fill="#000000" stroke="none">
<path d="M0 1125 l0 -1125 1125 0 1125 0 0 1125 0 1125 -1125 0 -1125 0 0
-1125z m742 494 c14 -7 18 -17 14 -33 -4 -18 18 -45 124 -151 127 -126 130
-130 109 -145 -20 -16 -26 -10 -170 136 -82 84 -149 157 -149 163 0 8 38 41
48 41 2 0 12 -5 24 -11z m838 -27 c21 -17 21 -17 -125 -162 -80 -80 -152 -146
-159 -148 -7 -2 -19 4 -26 13 -12 14 3 33 119 149 72 72 129 135 125 138 -10
11 6 28 25 28 11 0 29 -8 41 -18z m-175 -684 l60 -62 -60 54 c-55 50 -73 70
-63 70 2 0 30 -28 63 -62z m171 -146 c10 -6 27 -42 20 -42 -1 0 -13 11 -26 25
-22 23 -18 34 6 17z"/>
</g>
</svg>
